<svg xmlns="http://www.w3.org/2000/svg" width="130" height="76" xml:space="preserve"><path fill="#004750" d="M32.704 53.9h7.842v-.013a7.641 7.641 0 0 0 7.437-7.639 7.653 7.653 0 0 0-7.648-7.649c-4.229 0-7.659 2.494-7.649 7.649 0 .143.014.283.019.423V53.9zM0 18.508V76h57.494c10.1 0 18.281-8.18 18.281-18.277V.229H18.273C8.187.229 0 8.409 0 18.508zm20.964 43.541.003-.043c0-.679-.003-1.983-.003-3.748V11.095h11.631v17.338l.048-.168v.138c2.233-.751 4.678-1.122 7.246-1.122 10.44 0 18.918 8.468 18.918 18.918 0 9.83-7.5 17.91-17.091 18.832H22.549c-1.267-.436-1.536-1.73-1.584-2.446v-.536zm70.435-34.452H83.34V54.18c0 5.697 4.136 7.9 9.505 7.9 1.883 0 3.869-.165 5.645-.81v-6.717c-.702.65-2.414.766-3.273.766-3.495 0-3.817-2.048-3.817-4.844v-8.696h7.091v-6.447H91.4v-7.735zm30.079 7.843-6.125 18.086h-.106l-6.605-18.086h-8.7l10.792 26.64h8.535l10.316-26.64h-8.107z"/></svg>